<svg id="Icons" height="512" viewBox="0 0 74 74" width="512" xmlns="http://www.w3.org/2000/svg"><path d="m33.75 55.511a1 1 0 0 1 -.994-1.108l1.369-12.624-9.025-1.556a1 1 0 0 1 -.63-1.585l14.83-19.774a1 1 0 0 1 1.8.7l-1.223 12.578 9.037 1.558a1 1 0 0 1 .627 1.588l-14.994 19.826a1 1 0 0 1 -.797.397zm-6.7-16.981 8.341 1.438a1 1 0 0 1 .824 1.093l-1.081 9.961 11.822-15.63-8.334-1.437a1 1 0 0 1 -.825-1.082l.964-9.957z"/><path d="m59.21 63.71a1 1 0 0 1 -.654-1.756c.724-.626 1.4-1.261 2.057-1.941a1 1 0 0 1 1.434 1.394c-.7.721-1.415 1.4-2.183 2.059a.994.994 0 0 1 -.654.244z"/><path d="m36.98 71.98a34.956 34.956 0 1 1 33.888-26.209 1 1 0 1 1 -1.936-.5 32.986 32.986 0 1 0 -16.084 20.653 1 1 0 1 1 .964 1.752 34.978 34.978 0 0 1 -16.832 4.304z"/><path d="m65.689 56.21a1 1 0 0 1 -.846-1.532c.56-.892 1.044-1.735 1.478-2.576a1 1 0 1 1 1.778.917c-.461.892-.972 1.783-1.562 2.723a1 1 0 0 1 -.848.468z"/><path d="m36.983 64.983a28 28 0 1 1 28-28 28.031 28.031 0 0 1 -28 28zm0-54a26 26 0 1 0 26 26 26.03 26.03 0 0 0 -26-26z"/></svg>