<svg height="442pt" viewBox="-29 0 442 442" width="442pt" xmlns="http://www.w3.org/2000/svg"><path d="m8.484375 442h367.03125c4.417969 0 8.484375-3.398438 8.484375-7.824219v-386.808593c-.195312-4.582032-3.898438-8.234376-8.484375-8.367188h-43.515625v-31c0-4.417969-3.582031-8-8-8s-8 3.582031-8 8v31h-50v-31c0-4.417969-3.582031-8-8-8s-8 3.582031-8 8v31h-50v-31c0-4.417969-3.582031-8-8-8s-8 3.582031-8 8v31h-50v-31c0-4.417969-3.582031-8-8-8s-8 3.582031-8 8v31h-50v-31c0-4.417969-3.582031-8-8-8s-8 3.582031-8 8v31h-43.515625c-4.585937.132812-8.289063 3.785156-8.484375 8.367188v386.808593c0 4.425781 4.066406 7.824219 8.484375 7.824219zm7.515625-16v-272h352v272zm36-371v28c0 4.417969 3.582031 8 8 8s8-3.582031 8-8v-28h50v28c0 4.417969 3.582031 8 8 8s8-3.582031 8-8v-28h50v28c0 4.417969 3.582031 8 8 8s8-3.582031 8-8v-28h50v28c0 4.417969 3.582031 8 8 8s8-3.582031 8-8v-28h50v28c0 4.417969 3.582031 8 8 8s8-3.582031 8-8v-28h36v83h-352v-83zm0 0"/><path d="m228.800781 249.207031-52.417969 49.480469-24.9375-25.597656c-3.082031-3.167969-8.148437-3.234375-11.3125-.152344-3.167968 3.082031-3.234374 8.148438-.152343 11.3125l30.433593 31.246094c3.046876 3.132812 8.042969 3.238281 11.222657.238281l58.144531-54.886719c3.214844-3.03125 3.363281-8.097656.328125-11.3125-3.03125-3.210937-8.09375-3.359375-11.308594-.328125zm0 0"/><path d="m192 180.085938c-55.441406 0-100.382812 44.941406-100.382812 100.382812 0 55.4375 44.941406 100.382812 100.382812 100.382812s100.382812-44.945312 100.382812-100.382812c-.0625-55.414062-44.96875-100.320312-100.382812-100.382812zm0 184.765624c-46.601562 0-84.382812-37.78125-84.382812-84.382812 0-46.605469 37.78125-84.382812 84.382812-84.382812s84.382812 37.777343 84.382812 84.382812c-.050781 46.582031-37.800781 84.328125-84.382812 84.382812zm0 0"/></svg>