<?xml version="1.0" encoding="UTF-8"?>
<svg xmlns="http://www.w3.org/2000/svg" id="Icons" viewBox="0 0 74 74" width="512" height="512"><path d="M49.543,9.389H39.453a1,1,0,0,1,0-2h10.09a1,1,0,1,1,0,2Z"/><path d="M59.8,72H14.2a3,3,0,0,1-3-3V10.389a3,3,0,0,1,3-3h5.349a1,1,0,1,1,0,2H14.2a1,1,0,0,0-1,1V69a1,1,0,0,0,1,1H59.8a1,1,0,0,0,1-1V10.389a1,1,0,0,0-1-1H54.449a1,1,0,0,1,0-2H59.8a3,3,0,0,1,3,3V69A3,3,0,0,1,59.8,72Z"/><path d="M34.547,9.389H24.457a1,1,0,0,1,0-2h10.09a1,1,0,1,1,0,2Z"/><path d="M61.8,20.679H12.2a1,1,0,0,1,0-2H61.8a1,1,0,0,1,0,2Z"/><path d="M52,14.777a3.457,3.457,0,0,1-3.453-3.453V5.454a3.454,3.454,0,1,1,6.907,0v5.87A3.458,3.458,0,0,1,52,14.777ZM52,4a1.455,1.455,0,0,0-1.453,1.454v5.87a1.454,1.454,0,0,0,2.907,0V5.454A1.455,1.455,0,0,0,52,4Z"/><path d="M37,14.777a3.458,3.458,0,0,1-3.454-3.453V5.454a3.454,3.454,0,0,1,6.908,0v5.87A3.458,3.458,0,0,1,37,14.777ZM37,4a1.455,1.455,0,0,0-1.454,1.454v5.87a1.454,1.454,0,0,0,2.908,0V5.454A1.455,1.455,0,0,0,37,4Z"/><path d="M22.005,14.777a3.458,3.458,0,0,1-3.454-3.453V5.454a3.454,3.454,0,1,1,6.907,0v5.87A3.457,3.457,0,0,1,22.005,14.777ZM22.005,4a1.455,1.455,0,0,0-1.454,1.454v5.87a1.454,1.454,0,0,0,2.907,0V5.454A1.455,1.455,0,0,0,22.005,4Z"/><path d="M55,31.688H19a1,1,0,0,1,0-2H55a1,1,0,0,1,0,2Z"/><path d="M55,41.469H19a1,1,0,0,1,0-2H55a1,1,0,0,1,0,2Z"/><path d="M55,51.251H19a1,1,0,0,1,0-2H55a1,1,0,0,1,0,2Z"/><path d="M55,61.033H19a1,1,0,0,1,0-2H55a1,1,0,0,1,0,2Z"/></svg>
