<svg id="light" enable-background="new 0 0 24 24" height="512" viewBox="0 0 24 24" width="512" xmlns="http://www.w3.org/2000/svg"><g><path d="m19.5 24h-18c-.827 0-1.5-.673-1.5-1.5v-18c0-.827.673-1.5 1.5-1.5h15.04c.276 0 .5.224.5.5s-.224.5-.5.5h-15.04c-.28 0-.5.22-.5.5v18c0 .28.22.5.5.5h18c.28 0 .5-.22.5-.5v-15.04c0-.276.224-.5.5-.5s.5.224.5.5v15.04c0 .827-.673 1.5-1.5 1.5z"/></g><g><path d="m20 8c-2.206 0-4-1.794-4-4s1.794-4 4-4 4 1.794 4 4-1.794 4-4 4zm0-7c-1.654 0-3 1.346-3 3s1.346 3 3 3 3-1.346 3-3-1.346-3-3-3z"/></g><g><path d="m17.5 11h-14c-.276 0-.5-.224-.5-.5s.224-.5.5-.5h14c.276 0 .5.224.5.5s-.224.5-.5.5z"/></g><g><path d="m13.5 8h-10c-.276 0-.5-.224-.5-.5s.224-.5.5-.5h10c.276 0 .5.224.5.5s-.224.5-.5.5z"/></g><g><path d="m17.5 14h-14c-.276 0-.5-.224-.5-.5s.224-.5.5-.5h14c.276 0 .5.224.5.5s-.224.5-.5.5z"/></g><g><path d="m17.5 17h-14c-.276 0-.5-.224-.5-.5s.224-.5.5-.5h14c.276 0 .5.224.5.5s-.224.5-.5.5z"/></g><g><path d="m17.5 20h-14c-.276 0-.5-.224-.5-.5s.224-.5.5-.5h14c.276 0 .5.224.5.5s-.224.5-.5.5z"/></g></svg>