<svg height="472pt" viewBox="-3 0 471 472" width="472pt" xmlns="http://www.w3.org/2000/svg"><path d="m168.5 80c0 8.835938 7.164062 16 16 16h96c8.835938 0 16-7.164062 16-16v-8h-128zm0 0" fill="#acabb1"/><path d="m168.5 72h128v-56c0-8.835938-7.164062-16-16-16h-96c-8.835938 0-16 7.164062-16 16zm0 0" fill="#57a4ff"/><path d="m296.5 416v-8h-128v8c0 8.835938 7.164062 16 16 16h96c8.835938 0 16-7.164062 16-16zm0 0" fill="#acabb1"/><path d="m280.5 336h-96c-8.835938 0-16 7.164062-16 16v56h128v-56c0-8.835938-7.164062-16-16-16zm0 0" fill="#57a4ff"/><path d="m80.5 280h32c8.835938 0 16-7.164062 16-16v-8h-128v8c0 8.835938 7.164062 16 16 16zm0 0" fill="#acabb1"/><path d="m112.5 184h-96c-8.835938 0-16 7.164062-16 16v56h128v-56c0-8.835938-7.164062-16-16-16zm0 0" fill="#57a4ff"/><path d="m336.5 256h128v-56c0-8.835938-7.164062-16-16-16h-96c-8.835938 0-16 7.164062-16 16zm0 0" fill="#57a4ff"/><path d="m336.5 264c0 8.835938 7.164062 16 16 16h96c8.835938 0 16-7.164062 16-16v-8h-128zm0 0" fill="#acabb1"/><g fill="#c6c5ca"><path d="m421.859375 175.464844c-3.429687-.003906-6.476563-2.191406-7.574219-5.441406-.824218-2.425782-1.695312-4.824219-2.617187-7.199219-1.070313-2.671875-.621094-5.714844 1.179687-7.964844 1.796875-2.25 4.664063-3.359375 7.507813-2.90625s5.222656 2.398437 6.234375 5.09375c1 2.59375 1.949218 5.207031 2.847656 7.839844.828125 2.445312.429688 5.136719-1.070312 7.234375-1.503907 2.097656-3.925782 3.34375-6.507813 3.34375zm-12.703125-29.34375c-2.957031 0-5.671875-1.625-7.0625-4.234375-1.207031-2.265625-2.460938-4.503907-3.761719-6.71875-2.125-3.804688-.8125-8.613281 2.949219-10.8125 3.765625-2.195313 8.597656-.976563 10.867188 2.75 1.398437 2.398437 2.75 4.796875 4.054687 7.246093 2.082031 3.898438.609375 8.742188-3.289063 10.824219-1.152343.625-2.445312.949219-3.757812.945313zm-17.230469-26.921875c-2.519531 0-4.890625-1.183594-6.402343-3.199219-1.546876-2.03125-3.144532-4.039062-4.800782-6.015625-2.71875-3.414063-2.195312-8.378906 1.171875-11.15625 3.367188-2.777344 8.339844-2.339844 11.171875.980469 1.765625 2.132812 3.488282 4.3125 5.167969 6.535156 1.820313 2.425781 2.113281 5.667969.757813 8.378906-1.355469 2.710938-4.125 4.421875-7.15625 4.421875zm-21.296875-23.847657c-2.058594.003907-4.039062-.789062-5.527344-2.207031-1.847656-1.769531-3.746093-3.503906-5.664062-5.199219-3.316406-2.925781-3.628906-7.984374-.707031-11.296874 2.925781-3.3125 7.984375-3.628907 11.296875-.703126 2.082031 1.832032 4.113281 3.703126 6.121094 5.597657 2.363281 2.257812 3.113281 5.726562 1.898437 8.757812-1.214844 3.035157-4.152344 5.023438-7.417969 5.027344zm-24.800781-20.167968c-1.617187 0-3.195313-.492188-4.527344-1.40625-2.132812-1.457032-4.265625-2.871094-6.402343-4.242188-3.734376-2.355468-4.855469-7.296875-2.5-11.035156 2.359374-3.738281 7.300781-4.855469 11.039062-2.5 2.335938 1.488281 4.644531 3.011719 6.925781 4.574219 2.890625 1.988281 4.148438 5.625 3.105469 8.972656s-4.140625 5.625-7.648438 5.621094zm-27.6875-16c-1.1875-.007813-2.355469-.28125-3.425781-.800782-1.796875-.851562-3.613282-1.679687-5.445313-2.480468-4.027343-1.78125-5.855469-6.480469-4.09375-10.511719 1.757813-4.035156 6.449219-5.890625 10.492188-4.152344 1.996093.875 3.960937 1.773438 5.902343 2.699219 3.351563 1.621094 5.140626 5.335938 4.316407 8.964844-.820313 3.628906-4.035157 6.210937-7.753907 6.234375zm0 0"/><path d="m43.140625 175.464844c-2.582031 0-5.003906-1.246094-6.507813-3.34375-1.5-2.097656-1.898437-4.789063-1.070312-7.234375.898438-2.664063 1.847656-5.277344 2.847656-7.839844 1.011719-2.695313 3.390625-4.640625 6.234375-5.09375s5.710938.65625 7.507813 2.90625c1.800781 2.25 2.25 5.292969 1.179687 7.964844-.917969 2.375-1.789062 4.773437-2.617187 7.199219-1.097656 3.25-4.144532 5.4375-7.574219 5.441406zm12.703125-29.34375c-1.3125.003906-2.605469-.320313-3.757812-.945313-3.898438-2.082031-5.371094-6.925781-3.289063-10.824219 1.304687-2.449218 2.65625-4.855468 4.054687-7.246093 2.234376-3.816407 7.140626-5.097657 10.957032-2.863281 3.816406 2.238281 5.09375 7.144531 2.859375 10.957031-1.296875 2.214843-2.550781 4.453125-3.761719 6.722656-1.398438 2.59375-4.113281 4.207031-7.0625 4.199219zm17.230469-26.921875c-3.027344 0-5.796875-1.710938-7.152344-4.421875-1.355469-2.710938-1.0625-5.953125.753906-8.378906 1.667969-2.21875 3.390625-4.394532 5.167969-6.535157 2.832031-3.320312 7.804688-3.753906 11.175781-.980469 3.367188 2.777344 3.886719 7.742188 1.167969 11.15625-1.597656 1.972657-3.199219 3.980469-4.800781 6.015626-1.503907 1.96875-3.832031 3.132812-6.3125 3.144531zm21.296875-23.847657c-3.265625-.003906-6.203125-1.992187-7.417969-5.027343-1.214844-3.03125-.464844-6.5 1.898437-8.757813 2.007813-1.910156 4-3.78125 6.121094-5.597656 3.3125-2.925781 8.371094-2.609375 11.296875.703125 2.921875 3.3125 2.609375 8.371094-.707031 11.296875-1.917969 1.695312-3.816406 3.429688-5.664062 5.199219-1.492188 1.410156-3.472657 2.191406-5.527344 2.183593zm24.800781-20.167968c-3.507813.003906-6.605469-2.273438-7.648437-5.621094-1.042969-3.347656.214843-6.984375 3.105468-8.96875 2.277344-1.570312 4.585938-3.09375 6.925782-4.578125 3.734374-2.363281 8.675781-1.253906 11.042968 2.480469 2.363282 3.734375 1.25 8.675781-2.480468 11.039062-2.132813 1.367188-4.269532 2.78125-6.402344 4.242188-1.332032.921875-2.914063 1.417968-4.535156 1.421875zm27.6875-16c-3.71875-.019532-6.933594-2.605469-7.753906-6.234375-.824219-3.628907.964843-7.34375 4.316406-8.964844 1.945313-.929687 3.914063-1.828125 5.902344-2.695313 4.042969-1.742187 8.734375.113282 10.492187 4.148438 1.761719 4.035156-.066406 8.734375-4.09375 10.515625-1.832031.800781-3.648437 1.625-5.445312 2.480469-1.054688.5-2.210938.761718-3.378906.765625zm0 0"/><path d="m58.835938 339.257812c-2.867188.007813-5.519532-1.519531-6.953126-4-.6875-1.210937-1.375-2.402343-2.039062-3.648437-1.410156-2.515625-1.359375-5.59375.132812-8.058594 1.492188-2.464843 4.191407-3.9375 7.074219-3.855469 2.878907.082032 5.492188 1.710938 6.839844 4.257813.617187 1.125 1.242187 2.238281 1.882813 3.359375 1.429687 2.476562 1.425781 5.527344-.003907 8.003906-1.429687 2.476563-4.074219 4-6.933593 3.996094zm0 0"/><path d="m127.035156 409.976562c-1.488281 0-2.953125-.417968-4.214844-1.207031-2.4375-1.511719-4.835937-3.078125-7.199218-4.699219-2.40625-1.589843-3.769532-4.355468-3.566406-7.230468.203124-2.878906 1.941406-5.425782 4.546874-6.664063 2.605469-1.238281 5.675782-.976562 8.035157.679688 2.175781 1.488281 4.390625 2.929687 6.648437 4.328125 3.035156 1.890625 4.445313 5.5625 3.460938 8.996094-.984375 3.4375-4.128906 5.800781-7.703125 5.796874zm-26.535156-19.695312c-1.941406 0-3.820312-.703125-5.28125-1.984375-2.132812-1.90625-4.246094-3.84375-6.34375-5.816406-3.195312-3.050781-3.3125-8.117188-.261719-11.3125 3.050781-3.195313 8.113281-3.316407 11.3125-.265625 1.910157 1.824218 3.855469 3.617187 5.855469 5.371094 2.5 2.195312 3.375 5.714843 2.203125 8.828124-1.175781 3.113282-4.15625 5.175782-7.484375 5.179688zm-22.945312-23.785156c-2.402344.003906-4.683594-1.074219-6.207032-2.9375-1.808594-2.222656-3.582031-4.480469-5.304687-6.773438-2.648438-3.535156-1.933594-8.550781 1.601562-11.199218 3.535157-2.652344 8.546875-1.9375 11.199219 1.597656 1.601562 2.132812 3.230469 4.214844 4.894531 6.25 1.957031 2.390625 2.359375 5.691406 1.039063 8.484375-1.320313 2.792969-4.132813 4.574219-7.222656 4.578125zm0 0"/><path d="m152.5 423.375c-1.101562 0-2.191406-.230469-3.199219-.671875l-3.816406-1.703125c-4.019531-1.84375-5.78125-6.59375-3.941406-10.613281 1.84375-4.015625 6.59375-5.78125 10.613281-3.9375l3.550781 1.597656c3.476563 1.511719 5.414063 5.257813 4.640625 8.972656-.773437 3.710938-4.046875 6.367188-7.839844 6.363281zm0 0"/><path d="m406.164062 339.257812c-2.859374 0-5.503906-1.523437-6.933593-4-1.429688-2.472656-1.433594-5.527343-.003907-8 .640626-1.121093 1.265626-2.234374 1.882813-3.363281 1.347656-2.546875 3.960937-4.171875 6.839844-4.253906 2.882812-.082031 5.582031 1.390625 7.074219 3.855469 1.492187 2.464844 1.542968 5.542968.132812 8.054687-.664062 1.226563-1.351562 2.402344-2.039062 3.648438-1.421876 2.503906-4.074219 4.054687-6.953126 4.058593zm0 0"/><path d="m337.964844 409.976562c-3.574219.003907-6.71875-2.359374-7.703125-5.796874-.984375-3.433594.429687-7.105469 3.460937-8.996094 2.257813-1.402344 4.472656-2.84375 6.648438-4.328125 2.359375-1.65625 5.429687-1.917969 8.035156-.679688s4.34375 3.785157 4.546875 6.664063c.203125 2.875-1.160156 5.640625-3.566406 7.230468-2.367188 1.601563-4.765625 3.167969-7.199219 4.699219-1.265625.792969-2.730469 1.210938-4.222656 1.207031zm26.535156-19.695312c-3.328125-.003906-6.308594-2.066406-7.484375-5.179688-1.171875-3.113281-.296875-6.632812 2.203125-8.828124 2-1.753907 3.945312-3.546876 5.855469-5.371094 3.199219-3.050782 8.261719-2.929688 11.3125.265625 3.050781 3.195312 2.933593 8.261719-.261719 11.3125-2.074219 1.972656-4.191406 3.910156-6.34375 5.816406-1.460938 1.28125-3.339844 1.984375-5.28125 1.984375zm22.945312-23.785156c-3.089843-.003906-5.902343-1.785156-7.222656-4.578125-1.320312-2.792969-.917968-6.09375 1.039063-8.484375 1.667969-2.050782 3.300781-4.132813 4.894531-6.25 2.652344-3.535156 7.664062-4.25 11.199219-1.597656 3.535156 2.648437 4.25 7.664062 1.601562 11.199218-1.722656 2.292969-3.496093 4.550782-5.304687 6.773438-1.53125 1.871094-3.824219 2.953125-6.242188 2.9375zm0 0"/><path d="m312.5 423.375c-3.792969.003906-7.066406-2.652344-7.839844-6.363281-.773437-3.714844 1.164063-7.460938 4.640625-8.972657l3.550781-1.597656c4.019532-1.84375 8.769532-.078125 10.613282 3.9375 1.839844 4.019532.078125 8.769532-3.941406 10.613282l-3.816407 1.703124c-1.011719.445313-2.101562.679688-3.207031.679688zm0 0"/></g><path d="m272.5 120h-24v-24h-32v24h-24c-4.417969 0-8 3.582031-8 8s3.582031 8 8 8h80c4.417969 0 8-3.582031 8-8s-3.582031-8-8-8zm0 0" fill="#898890"/><path d="m272.5 456h-24v-24h-32v24h-24c-4.417969 0-8 3.582031-8 8s3.582031 8 8 8h80c4.417969 0 8-3.582031 8-8s-3.582031-8-8-8zm0 0" fill="#898890"/><path d="m104.5 304h-24v-24h-32v24h-24c-4.417969 0-8 3.582031-8 8s3.582031 8 8 8h80c4.417969 0 8-3.582031 8-8s-3.582031-8-8-8zm0 0" fill="#898890"/><path d="m440.5 304h-24v-24h-32v24h-24c-4.417969 0-8 3.582031-8 8s3.582031 8 8 8h80c4.417969 0 8-3.582031 8-8s-3.582031-8-8-8zm0 0" fill="#898890"/></svg>